<?xml version="1.0" encoding="utf-8"?>
<svg viewBox="0 0 500 500" xmlns="http://www.w3.org/2000/svg">
  <path fill="rgb(255,0,0)" stroke-width="0" d="M 96.909 42.415 C 127.476 42.177 156.486 69.283 145.952 75.715 C 144.72 76.467 116.18 78.199 114.68 78.378 C 115.205 80.328 115.364 104.963 113.408 102.856 C 111.694 101.011 86.751 103.868 84.595 102.709 C 82.535 101.602 83.519 81.415 82.686 78.268 C 78.609 78.356 47.186 80.444 47.098 78.079 C 46.325 57.23 82.591 42.526 96.909 42.415 Z" style="fill: rgb(166, 209, 48); stroke-width: 2px; stroke: rgb(166, 209, 48);"/>
  <path stroke-width="0" d="M 251.693 41.432 C 282.26 41.194 311.27 68.3 300.736 74.732 C 299.504 75.484 270.964 77.216 269.464 77.395 C 269.989 79.345 270.148 103.98 268.192 101.873 C 266.478 100.028 241.535 102.885 239.379 101.726 C 237.319 100.619 238.303 80.432 237.47 77.285 C 233.393 77.373 201.97 79.461 201.882 77.096 C 201.109 56.247 237.375 41.543 251.693 41.432 Z" style="stroke-width: 2px; fill: rgb(48, 64, 209); stroke: rgb(48, 64, 209);"/>
  <path stroke-width="0" d="M 97.198 163.344 C 127.765 163.106 156.775 190.212 146.241 196.644 C 145.009 197.396 116.469 199.128 114.969 199.307 C 115.494 201.257 115.653 225.892 113.697 223.785 C 111.983 221.94 87.04 224.797 84.884 223.638 C 82.824 222.531 83.808 202.344 82.975 199.197 C 78.898 199.285 47.475 201.373 47.387 199.008 C 46.614 178.159 82.88 163.455 97.198 163.344 Z" style="stroke-width: 2px; fill: rgb(223, 0, 0); stroke: rgb(223, 0, 0);"/>
  <path stroke-width="0" d="M 265.24 164.076 C 295.807 163.838 324.817 190.944 314.283 197.376 C 313.051 198.128 284.511 199.86 283.011 200.039 C 283.536 201.989 283.695 226.624 281.739 224.517 C 280.025 222.672 255.082 225.529 252.926 224.37 C 250.866 223.263 251.85 203.076 251.017 199.929 C 246.94 200.017 215.517 202.105 215.429 199.74 C 214.656 178.891 250.922 164.187 265.24 164.076 Z" style="stroke-width: 2px; stroke: rgb(222, 196, 1); fill: rgb(222, 196, 1);"/>
  <path stroke-width="0" d="M 97.198 163.344 C 127.765 163.106 156.775 190.212 146.241 196.644 C 145.009 197.396 116.469 199.128 114.969 199.307 C 115.494 201.257 115.653 225.892 113.697 223.785 C 111.983 221.94 87.04 224.797 84.884 223.638 C 82.824 222.531 83.808 202.344 82.975 199.197 C 78.898 199.285 47.475 201.373 47.387 199.008 C 46.614 178.159 82.88 163.455 97.198 163.344 Z" style="stroke-width: 2px; fill: rgb(223, 0, 0); stroke: rgb(223, 0, 0);"/>
</svg>